# xmcd
# Track frame offsets:
# 150
# 19622
# 36820
# 54437
# 64645
# 80750
# 99825
# 114380
# 130805
# 141937
# 156390
# 169740
#
# Disc length: 2430 seconds
# Revision: 0
# Processed by: cddbd v1.4PL0 Copyright (c) Steve Scherf et al.
# Submitted via: VisiTrax 2.9.5.181 - For more info visit www.synapsa.com
#
DISCID=98097c0c
DTITLE=Various Artist - America's Country-Rig Ridin' Favorites
DYEAR=1997
DGENRE=Country
TTITLE0=Alabama - Roll On (Eighteen Wheeler)
TTITLE1=Restless Heart - Wheels
TTITLE2=Dan Seals - Big Wheels In The Moonlight
TTITLE3=Charley Pride - Is Anybody Goin' To San Antone
TTITLE4=Steve Wariner - All Roads Lead To You
TTITLE5=Ronnie Milsap - Prisoner Of The Highway
TTITLE6=Don Williams - Tulsa Time
TTITLE7=Mel Tillis And The Statesiders - Send Me Down To Tucson
TTITLE8=Geoorge Hamilton IV - Truck Driving Man
TTITLE9=Razzy Bailey - Midnight Hauler
TTITLE10=Larry Gatlin and The Gatlin Brothers Band - Houston (Means I'm One Day C
TTITLE10=loser To You)
TTITLE11=Jerry Reed - East Bound And Down
EXTD=
EXTT0=
EXTT1=
EXTT2=
EXTT3=
EXTT4=
EXTT5=
EXTT6=
EXTT7=
EXTT8=
EXTT9=
EXTT10=
EXTT11=
PLAYORDER=
